<?xml version="1.0" encoding="UTF-8"?>
<svg xmlns="http://www.w3.org/2000/svg" viewBox="-12.4 -8.68 24.8 17.36" width="900" height="630">
<rect x="-10" y="-7" width="20" height="14" fill="#f7efde" stroke="#c5b69a" stroke-width="0.04"/>
<line x1="0" y1="7" x2="0" y2="-7" stroke="#d8c8a8" stroke-width="0.02" stroke-dasharray="0.1,0.1"/>
<line x1="-10" y1="0" x2="10" y2="0" stroke="#d8c8a8" stroke-width="0.02" stroke-dasharray="0.1,0.1"/>
<text x="-10" y="7.672" font-size="0.25" fill="#8a7864" font-family="serif">LEFT (data in)</text>
<text x="10" y="7.672" font-size="0.25" fill="#8a7864" font-family="serif" text-anchor="end">RIGHT (data out)</text>
<text x="0" y="-7.42" font-size="0.25" fill="#8a7864" font-family="serif" text-anchor="middle">TOP (control)</text>
<text x="0" y="8.176" font-size="0.25" fill="#8a7864" font-family="serif" text-anchor="middle">BOTTOM (power/ground)</text>
<rect x="-4.5" y="-5.5" width="3" height="2" fill="#fff8e7" stroke="#7a6147" stroke-width="0.04" stroke-dasharray="0.18,0.12"/>
<text x="-3" y="-4.5" text-anchor="middle" dominant-baseline="middle" font-size="0.28" fill="#7a6147" font-family="serif" font-weight="bold">adder</text>
<text x="-3" y="-3.55" text-anchor="middle" dominant-baseline="alphabetic" font-size="0.16" fill="#a89880" font-family="serif" font-style="italic">adder4box</text>
<rect x="-4.5" y="-2.5" width="3" height="2" fill="#fff8e7" stroke="#7a6147" stroke-width="0.04" stroke-dasharray="0.18,0.12"/>
<text x="-3" y="-1.5" text-anchor="middle" dominant-baseline="middle" font-size="0.28" fill="#7a6147" font-family="serif" font-weight="bold">andb</text>
<text x="-3" y="-0.55" text-anchor="middle" dominant-baseline="alphabetic" font-size="0.16" fill="#a89880" font-family="serif" font-style="italic">gatebox</text>
<rect x="-4.5" y="0.5" width="3" height="2" fill="#fff8e7" stroke="#7a6147" stroke-width="0.04" stroke-dasharray="0.18,0.12"/>
<text x="-3" y="1.5" text-anchor="middle" dominant-baseline="middle" font-size="0.28" fill="#7a6147" font-family="serif" font-weight="bold">orb</text>
<text x="-3" y="2.45" text-anchor="middle" dominant-baseline="alphabetic" font-size="0.16" fill="#a89880" font-family="serif" font-style="italic">gatebox</text>
<rect x="-4.5" y="3.5" width="3" height="2" fill="#fff8e7" stroke="#7a6147" stroke-width="0.04" stroke-dasharray="0.18,0.12"/>
<text x="-3" y="4.5" text-anchor="middle" dominant-baseline="middle" font-size="0.28" fill="#7a6147" font-family="serif" font-weight="bold">xorb</text>
<text x="-3" y="5.45" text-anchor="middle" dominant-baseline="alphabetic" font-size="0.16" fill="#a89880" font-family="serif" font-style="italic">gatebox</text>
<rect x="3.5" y="-3" width="3" height="6" fill="#fff8e7" stroke="#7a6147" stroke-width="0.04" stroke-dasharray="0.18,0.12"/>
<text x="5" y="0" text-anchor="middle" dominant-baseline="middle" font-size="0.28" fill="#7a6147" font-family="serif" font-weight="bold">opmux</text>
<text x="5" y="2.95" text-anchor="middle" dominant-baseline="alphabetic" font-size="0.16" fill="#a89880" font-family="serif" font-style="italic">muxbox</text>
<polyline points="-10.000,-1.500 -9.000,-1.500" fill="none" stroke="#5577aa" stroke-width="0.06" stroke-linejoin="round" stroke-linecap="round" opacity="0.85"/>
<polyline points="-9.000,-1.500 -9.000,-4.900 -4.500,-4.900" fill="none" stroke="#5577aa" stroke-width="0.06" stroke-linejoin="round" stroke-linecap="round" opacity="0.85"/>
<polyline points="-9.000,-1.500 -9.000,-1.900 -4.500,-1.900" fill="none" stroke="#5577aa" stroke-width="0.06" stroke-linejoin="round" stroke-linecap="round" opacity="0.85"/>
<polyline points="-9.000,-1.500 -9.000,1.100 -4.500,1.100" fill="none" stroke="#5577aa" stroke-width="0.06" stroke-linejoin="round" stroke-linecap="round" opacity="0.85"/>
<polyline points="-9.000,-1.500 -9.000,4.100 -4.500,4.100" fill="none" stroke="#5577aa" stroke-width="0.06" stroke-linejoin="round" stroke-linecap="round" opacity="0.85"/>
<polyline points="-10.000,1.500 -8.500,1.500" fill="none" stroke="#5577aa" stroke-width="0.06" stroke-linejoin="round" stroke-linecap="round" opacity="0.85"/>
<polyline points="-8.500,1.500 -8.500,-4.100 -4.500,-4.100" fill="none" stroke="#5577aa" stroke-width="0.06" stroke-linejoin="round" stroke-linecap="round" opacity="0.85"/>
<polyline points="-8.500,1.500 -8.500,-1.100 -4.500,-1.100" fill="none" stroke="#5577aa" stroke-width="0.06" stroke-linejoin="round" stroke-linecap="round" opacity="0.85"/>
<polyline points="-8.500,1.500 -8.500,1.900 -4.500,1.900" fill="none" stroke="#5577aa" stroke-width="0.06" stroke-linejoin="round" stroke-linecap="round" opacity="0.85"/>
<polyline points="-8.500,1.500 -8.500,4.900 -4.500,4.900" fill="none" stroke="#5577aa" stroke-width="0.06" stroke-linejoin="round" stroke-linecap="round" opacity="0.85"/>
<polyline points="-1.500,-4.500 0.000,-4.500 0.000,-1.000 3.500,-1.000" fill="none" stroke="#7a6147" stroke-width="0.06" stroke-linejoin="round" stroke-linecap="round" opacity="0.85"/>
<polyline points="-1.500,-1.500 0.400,-1.500 0.400,-0.200 3.500,-0.200" fill="none" stroke="#7a6147" stroke-width="0.06" stroke-linejoin="round" stroke-linecap="round" opacity="0.85"/>
<polyline points="-1.500,1.500 0.167,1.500 0.167,0.600 3.500,0.600" fill="none" stroke="#7a6147" stroke-width="0.06" stroke-linejoin="round" stroke-linecap="round" opacity="0.85"/>
<polyline points="-1.500,4.500 1.833,4.500 1.833,1.400 3.500,1.400" fill="none" stroke="#7a6147" stroke-width="0.06" stroke-linejoin="round" stroke-linecap="round" opacity="0.85"/>
<polyline points="-10.000,-5.500 -9.500,-5.500 -9.500,-6.000 0.167,-6.000 0.167,-2.400 3.500,-2.400" fill="none" stroke="#7a6147" stroke-width="0.06" stroke-linejoin="round" stroke-linecap="round" opacity="0.85"/>
<polyline points="-10.000,-4.500 -9.200,-4.500 -9.200,-6.500 1.833,-6.500 1.833,-1.800 3.500,-1.800" fill="none" stroke="#7a6147" stroke-width="0.06" stroke-linejoin="round" stroke-linecap="round" opacity="0.85"/>
<polyline points="6.500,0.000 10.000,0.000" fill="none" stroke="#3a7d34" stroke-width="0.06" stroke-linejoin="round" stroke-linecap="round" opacity="0.85"/>
<circle cx="-10" cy="-5.5" r="0.18" fill="#b8470d" stroke="#3b2718" stroke-width="0.04"/>
<text x="-10.35" y="-5.5" text-anchor="end" dominant-baseline="middle" font-size="0.26" fill="#3b2718" font-family="serif" font-weight="600">op1_in</text>
<text x="-10.35" y="-5.22" text-anchor="end" dominant-baseline="middle" font-size="0.18" fill="#7a6147" font-family="monospace">(-10, 5.5)</text>
<circle cx="-10" cy="-4.5" r="0.18" fill="#b8470d" stroke="#3b2718" stroke-width="0.04"/>
<text x="-10.35" y="-4.5" text-anchor="end" dominant-baseline="middle" font-size="0.26" fill="#3b2718" font-family="serif" font-weight="600">op0_in</text>
<text x="-10.35" y="-4.22" text-anchor="end" dominant-baseline="middle" font-size="0.18" fill="#7a6147" font-family="monospace">(-10, 4.5)</text>
<circle cx="-10" cy="-1.5" r="0.18" fill="#b8470d" stroke="#3b2718" stroke-width="0.04"/>
<text x="-10.35" y="-1.5" text-anchor="end" dominant-baseline="middle" font-size="0.26" fill="#3b2718" font-family="serif" font-weight="600">A_in</text>
<text x="-10.35" y="-1.22" text-anchor="end" dominant-baseline="middle" font-size="0.18" fill="#7a6147" font-family="monospace">(-10, 1.5)</text>
<circle cx="-10" cy="1.5" r="0.18" fill="#b8470d" stroke="#3b2718" stroke-width="0.04"/>
<text x="-10.35" y="1.5" text-anchor="end" dominant-baseline="middle" font-size="0.26" fill="#3b2718" font-family="serif" font-weight="600">B_in</text>
<text x="-10.35" y="1.78" text-anchor="end" dominant-baseline="middle" font-size="0.18" fill="#7a6147" font-family="monospace">(-10, -1.5)</text>
<circle cx="10" cy="0" r="0.18" fill="#b8470d" stroke="#3b2718" stroke-width="0.04"/>
<text x="10.35" y="0" text-anchor="start" dominant-baseline="middle" font-size="0.26" fill="#3b2718" font-family="serif" font-weight="600">Y_out</text>
<text x="10.35" y="0.28" text-anchor="start" dominant-baseline="middle" font-size="0.18" fill="#7a6147" font-family="monospace">(10, 0)</text>
<line x1="-10" y1="-7" x2="10" y2="-7" stroke="#3a7d34" stroke-width="0.10" stroke-linecap="round"/>
<text x="-10" y="-7.25" text-anchor="start" dominant-baseline="middle" font-size="0.30" fill="#3a7d34" font-family="serif" font-weight="700">Vdd</text>
<text x="10" y="-7.25" text-anchor="end" dominant-baseline="middle" font-size="0.20" fill="#7a6147" font-family="monospace">y=7</text>
<line x1="-10" y1="7" x2="10" y2="7" stroke="#3b2718" stroke-width="0.10" stroke-linecap="round"/>
<text x="-10" y="7.45" text-anchor="start" dominant-baseline="middle" font-size="0.30" fill="#3b2718" font-family="serif" font-weight="700">GND</text>
<text x="10" y="7.45" text-anchor="end" dominant-baseline="middle" font-size="0.20" fill="#7a6147" font-family="monospace">y=-7</text>
</svg>
