<?xml version="1.0" encoding="UTF-8"?>
<svg xmlns="http://www.w3.org/2000/svg" viewBox="-14.879999999999999 -9.68 29.759999999999998 17.36" width="900" height="525">
<rect x="-12" y="-8" width="24" height="14" fill="#f7efde" stroke="#c5b69a" stroke-width="0.04"/>
<line x1="0" y1="6" x2="0" y2="-8" stroke="#d8c8a8" stroke-width="0.02" stroke-dasharray="0.1,0.1"/>
<line x1="-12" y1="-2" x2="12" y2="-2" stroke="#d8c8a8" stroke-width="0.02" stroke-dasharray="0.1,0.1"/>
<text x="-12" y="6.672" font-size="0.25" fill="#8a7864" font-family="serif">LEFT (data in)</text>
<text x="12" y="6.672" font-size="0.25" fill="#8a7864" font-family="serif" text-anchor="end">RIGHT (data out)</text>
<text x="0" y="-8.42" font-size="0.25" fill="#8a7864" font-family="serif" text-anchor="middle">TOP (control)</text>
<text x="0" y="7.176" font-size="0.25" fill="#8a7864" font-family="serif" text-anchor="middle">BOTTOM (power/ground)</text>
<rect x="-7" y="-6" width="4" height="8" fill="#fff8e7" stroke="#7a6147" stroke-width="0.04" stroke-dasharray="0.18,0.12"/>
<text x="-5" y="-2" text-anchor="middle" dominant-baseline="middle" font-size="0.28" fill="#7a6147" font-family="serif" font-weight="bold">reg</text>
<text x="-5" y="1.95" text-anchor="middle" dominant-baseline="alphabetic" font-size="0.16" fill="#a89880" font-family="serif" font-style="italic">regbox</text>
<rect x="3" y="-6" width="4" height="8" fill="#fff8e7" stroke="#7a6147" stroke-width="0.04" stroke-dasharray="0.18,0.12"/>
<text x="5" y="-2" text-anchor="middle" dominant-baseline="middle" font-size="0.28" fill="#7a6147" font-family="serif" font-weight="bold">add</text>
<text x="5" y="1.95" text-anchor="middle" dominant-baseline="alphabetic" font-size="0.16" fill="#a89880" font-family="serif" font-style="italic">adderbox</text>
<polyline points="-12.000,-8.000 12.000,-8.000" fill="none" stroke="#3a7d34" stroke-width="0.06" stroke-linejoin="round" stroke-linecap="round" opacity="0.85"/>
<polyline points="-12.000,6.000 12.000,6.000" fill="none" stroke="#3b2718" stroke-width="0.06" stroke-linejoin="round" stroke-linecap="round" opacity="0.85"/>
<polyline points="-5.000,-7.000 -5.000,-6.000" fill="none" stroke="#7a6147" stroke-width="0.06" stroke-linejoin="round" stroke-linecap="round" opacity="0.85"/>
<polyline points="-3.000,-5.000 3.000,-5.000" fill="none" stroke="#7a6147" stroke-width="0.06" stroke-linejoin="round" stroke-linecap="round" opacity="0.85"/>
<polyline points="-3.000,-3.000 3.000,-3.000" fill="none" stroke="#7a6147" stroke-width="0.06" stroke-linejoin="round" stroke-linecap="round" opacity="0.85"/>
<polyline points="-3.000,-1.000 3.000,-1.000" fill="none" stroke="#7a6147" stroke-width="0.06" stroke-linejoin="round" stroke-linecap="round" opacity="0.85"/>
<polyline points="-3.000,1.000 3.000,1.000" fill="none" stroke="#7a6147" stroke-width="0.06" stroke-linejoin="round" stroke-linecap="round" opacity="0.85"/>
<polyline points="7.000,-5.000 9.857,-5.000 9.857,5.200 -11.000,5.200 -11.000,-5.000 -7.000,-5.000" fill="none" stroke="#7a6147" stroke-width="0.06" stroke-linejoin="round" stroke-linecap="round" opacity="0.85"/>
<polyline points="7.000,-3.000 9.143,-3.000 9.143,4.400 -10.000,4.400 -10.000,-3.000 -7.000,-3.000" fill="none" stroke="#7a6147" stroke-width="0.06" stroke-linejoin="round" stroke-linecap="round" opacity="0.85"/>
<polyline points="7.000,-1.000 8.429,-1.000 8.429,3.600 -9.000,3.600 -9.000,-1.000 -7.000,-1.000" fill="none" stroke="#7a6147" stroke-width="0.06" stroke-linejoin="round" stroke-linecap="round" opacity="0.85"/>
<polyline points="7.000,1.000 7.714,1.000 7.714,2.800 -8.000,2.800 -8.000,1.000 -7.000,1.000" fill="none" stroke="#7a6147" stroke-width="0.06" stroke-linejoin="round" stroke-linecap="round" opacity="0.85"/>
<polyline points="-3.000,-1.000 -1.000,-1.000 -1.000,-7.000 10.571,-7.000 10.571,-3.500 12.000,-3.500" fill="none" stroke="#7a6147" stroke-width="0.06" stroke-linejoin="round" stroke-linecap="round" opacity="0.85"/>
<polyline points="-3.000,1.000 1.000,1.000 1.000,-6.700 11.286,-6.700 11.286,-2.500 12.000,-2.500" fill="none" stroke="#7a6147" stroke-width="0.06" stroke-linejoin="round" stroke-linecap="round" opacity="0.85"/>
<circle cx="-5" cy="-7" r="0.18" fill="#b8470d" stroke="#3b2718" stroke-width="0.04"/>
<text x="-5" y="-7.35" text-anchor="middle" dominant-baseline="middle" font-size="0.26" fill="#3b2718" font-family="serif" font-weight="600">CLK_in</text>
<text x="-5" y="-7.069999999999999" text-anchor="middle" dominant-baseline="middle" font-size="0.18" fill="#7a6147" font-family="monospace">(-5, 5)</text>
<circle cx="12" cy="-3.5" r="0.18" fill="#b8470d" stroke="#3b2718" stroke-width="0.04"/>
<text x="12.35" y="-3.5" text-anchor="start" dominant-baseline="middle" font-size="0.26" fill="#3b2718" font-family="serif" font-weight="600">Q1_out</text>
<text x="12.35" y="-3.2199999999999998" text-anchor="start" dominant-baseline="middle" font-size="0.18" fill="#7a6147" font-family="monospace">(12, 1.5)</text>
<circle cx="12" cy="-2.5" r="0.18" fill="#b8470d" stroke="#3b2718" stroke-width="0.04"/>
<text x="12.35" y="-2.5" text-anchor="start" dominant-baseline="middle" font-size="0.26" fill="#3b2718" font-family="serif" font-weight="600">Q0_out</text>
<text x="12.35" y="-2.2199999999999998" text-anchor="start" dominant-baseline="middle" font-size="0.18" fill="#7a6147" font-family="monospace">(12, 0.5)</text>
<line x1="-12" y1="-8" x2="12" y2="-8" stroke="#3a7d34" stroke-width="0.10" stroke-linecap="round"/>
<text x="-12" y="-8.25" text-anchor="start" dominant-baseline="middle" font-size="0.30" fill="#3a7d34" font-family="serif" font-weight="700">Vdd</text>
<text x="12" y="-8.25" text-anchor="end" dominant-baseline="middle" font-size="0.20" fill="#7a6147" font-family="monospace">y=6</text>
<line x1="-12" y1="6" x2="12" y2="6" stroke="#3b2718" stroke-width="0.10" stroke-linecap="round"/>
<text x="-12" y="6.45" text-anchor="start" dominant-baseline="middle" font-size="0.30" fill="#3b2718" font-family="serif" font-weight="700">GND</text>
<text x="12" y="6.45" text-anchor="end" dominant-baseline="middle" font-size="0.20" fill="#7a6147" font-family="monospace">y=-8</text>
</svg>
