<?xml version="1.0" encoding="UTF-8"?>
<svg xmlns="http://www.w3.org/2000/svg" viewBox="-7.4399999999999995 -4.96 14.879999999999999 9.92" width="900" height="600">
<rect x="-6" y="-4" width="12" height="8" fill="#f7efde" stroke="#c5b69a" stroke-width="0.04"/>
<line x1="0" y1="4" x2="0" y2="-4" stroke="#d8c8a8" stroke-width="0.02" stroke-dasharray="0.1,0.1"/>
<line x1="-6" y1="0" x2="6" y2="0" stroke="#d8c8a8" stroke-width="0.02" stroke-dasharray="0.1,0.1"/>
<text x="-6" y="4.384" font-size="0.25" fill="#8a7864" font-family="serif">LEFT (data in)</text>
<text x="6" y="4.384" font-size="0.25" fill="#8a7864" font-family="serif" text-anchor="end">RIGHT (data out)</text>
<text x="0" y="-4.24" font-size="0.25" fill="#8a7864" font-family="serif" text-anchor="middle">TOP (control)</text>
<text x="0" y="4.672" font-size="0.25" fill="#8a7864" font-family="serif" text-anchor="middle">BOTTOM (power/ground)</text>
<rect x="-5" y="-0.3" width="1" height="0.6" fill="#fff8e7" stroke="#7a6147" stroke-width="0.04" stroke-dasharray="0.18,0.12"/>
<text x="-4.5" y="0" text-anchor="middle" dominant-baseline="middle" font-size="0.28" fill="#7a6147" font-family="serif" font-weight="bold">inv</text>
<text x="-4.5" y="0.25" text-anchor="middle" dominant-baseline="alphabetic" font-size="0.16" fill="#a89880" font-family="serif" font-style="italic">inverter</text>
<rect x="-3.9285" y="-2.5" width="2.857" height="2" fill="#fff8e7" stroke="#7a6147" stroke-width="0.04" stroke-dasharray="0.18,0.12"/>
<text x="-2.5" y="-1.5" text-anchor="middle" dominant-baseline="middle" font-size="0.28" fill="#7a6147" font-family="serif" font-weight="bold">GS</text>
<text x="-2.5" y="-0.55" text-anchor="middle" dominant-baseline="alphabetic" font-size="0.16" fill="#a89880" font-family="serif" font-style="italic">gate (NAND)</text>
<rect x="-3.9285" y="0.5" width="2.857" height="2" fill="#fff8e7" stroke="#7a6147" stroke-width="0.04" stroke-dasharray="0.18,0.12"/>
<text x="-2.5" y="1.5" text-anchor="middle" dominant-baseline="middle" font-size="0.28" fill="#7a6147" font-family="serif" font-weight="bold">GR</text>
<text x="-2.5" y="2.45" text-anchor="middle" dominant-baseline="alphabetic" font-size="0.16" fill="#a89880" font-family="serif" font-style="italic">gate (NAND)</text>
<rect x="1.0715" y="-2.5" width="2.857" height="2" fill="#fff8e7" stroke="#7a6147" stroke-width="0.04" stroke-dasharray="0.18,0.12"/>
<text x="2.5" y="-1.5" text-anchor="middle" dominant-baseline="middle" font-size="0.28" fill="#7a6147" font-family="serif" font-weight="bold">N1</text>
<text x="2.5" y="-0.55" text-anchor="middle" dominant-baseline="alphabetic" font-size="0.16" fill="#a89880" font-family="serif" font-style="italic">gate (NAND)</text>
<rect x="1.0715" y="0.5" width="2.857" height="2" fill="#fff8e7" stroke="#7a6147" stroke-width="0.04" stroke-dasharray="0.18,0.12"/>
<text x="2.5" y="1.5" text-anchor="middle" dominant-baseline="middle" font-size="0.28" fill="#7a6147" font-family="serif" font-weight="bold">N2</text>
<text x="2.5" y="2.45" text-anchor="middle" dominant-baseline="alphabetic" font-size="0.16" fill="#a89880" font-family="serif" font-style="italic">gate (NAND)</text>
<polyline points="-6.000,-4.000 6.000,-4.000" fill="none" stroke="#3a7d34" stroke-width="0.06" stroke-linejoin="round" stroke-linecap="round" opacity="0.85"/>
<polyline points="-6.000,4.000 6.000,4.000" fill="none" stroke="#3b2718" stroke-width="0.06" stroke-linejoin="round" stroke-linecap="round" opacity="0.85"/>
<polyline points="-6.000,0.000 -5.000,0.000" fill="none" stroke="#5577aa" stroke-width="0.06" stroke-linejoin="round" stroke-linecap="round" opacity="0.85"/>
<polyline points="-6.000,0.000 -6.000,-1.929 -3.929,-1.929" fill="none" stroke="#5577aa" stroke-width="0.06" stroke-linejoin="round" stroke-linecap="round" opacity="0.85"/>
<polyline points="-4.000,0.000 -3.500,0.000 -3.500,0.500" fill="none" stroke="#a26a3e" stroke-width="0.06" stroke-linejoin="round" stroke-linecap="round" opacity="0.85"/>
<polyline points="-1.500,-3.500 -1.500,-3.000 -5.500,-3.000 -5.500,0.450 -2.000,0.450 -2.000,0.500" fill="none" stroke="#5577aa" stroke-width="0.06" stroke-linejoin="round" stroke-linecap="round" opacity="0.85"/>
<polyline points="-5.500,-2.600 -5.500,-2.600 -3.500,-2.600 -3.500,-2.500" fill="none" stroke="#5577aa" stroke-width="0.06" stroke-linejoin="round" stroke-linecap="round" opacity="0.85"/>
<polyline points="-1.071,-1.643 -0.071,-1.643 -0.071,-1.929 1.071,-1.929 1.071,-1.929" fill="none" stroke="#a26a3e" stroke-width="0.06" stroke-linejoin="round" stroke-linecap="round" opacity="0.85"/>
<polyline points="-1.071,1.357 -0.071,1.357 -0.071,1.071 1.071,1.071 1.071,1.071" fill="none" stroke="#a26a3e" stroke-width="0.06" stroke-linejoin="round" stroke-linecap="round" opacity="0.85"/>
<polyline points="3.929,-1.643 5.500,-1.643 5.500,-1.500 6.000,-1.500" fill="none" stroke="#3a7d34" stroke-width="0.06" stroke-linejoin="round" stroke-linecap="round" opacity="0.85"/>
<polyline points="3.929,1.357 5.500,1.357 5.500,1.500 6.000,1.500" fill="none" stroke="#3a7d34" stroke-width="0.06" stroke-linejoin="round" stroke-linecap="round" opacity="0.85"/>
<polyline points="3.929,-1.643 4.400,-1.643 4.400,1.071 3.929,1.071" fill="none" stroke="#3a7d34" stroke-width="0.06" stroke-linejoin="round" stroke-linecap="round" opacity="0.85"/>
<polyline points="3.929,1.357 5.000,1.357 5.000,-1.929 3.929,-1.929" fill="none" stroke="#3a7d34" stroke-width="0.06" stroke-linejoin="round" stroke-linecap="round" opacity="0.85"/>
<polyline points="-4.600,-4.000 -4.600,-0.300" fill="none" stroke="#3a7d34" stroke-width="0.05" stroke-linejoin="round" stroke-linecap="round" stroke-dasharray="0.18,0.1" opacity="0.7"/>
<circle cx="-4.6" cy="-0.3" r="0.07" fill="#3a7d34" opacity="0.8"/>
<polyline points="-4.400,4.000 -4.400,0.300" fill="none" stroke="#3b2718" stroke-width="0.05" stroke-linejoin="round" stroke-linecap="round" stroke-dasharray="0.18,0.1" opacity="0.7"/>
<circle cx="-4.4" cy="0.3" r="0.07" fill="#3b2718" opacity="0.8"/>
<polyline points="-2.600,-4.000 -2.600,-2.500" fill="none" stroke="#3a7d34" stroke-width="0.05" stroke-linejoin="round" stroke-linecap="round" stroke-dasharray="0.18,0.1" opacity="0.7"/>
<circle cx="-2.6" cy="-2.5" r="0.07" fill="#3a7d34" opacity="0.8"/>
<polyline points="5.700,4.000 5.700,0.400 -2.400,0.400 -2.400,-0.500" fill="none" stroke="#3b2718" stroke-width="0.05" stroke-linejoin="round" stroke-linecap="round" stroke-dasharray="0.18,0.1" opacity="0.7"/>
<circle cx="-2.4" cy="-0.5" r="0.07" fill="#3b2718" opacity="0.8"/>
<polyline points="-5.700,-4.000 -5.700,-0.420 -2.600,-0.420 -2.600,0.500" fill="none" stroke="#3a7d34" stroke-width="0.05" stroke-linejoin="round" stroke-linecap="round" stroke-dasharray="0.18,0.1" opacity="0.7"/>
<circle cx="-2.6" cy="0.5" r="0.07" fill="#3a7d34" opacity="0.8"/>
<polyline points="-2.400,4.000 -2.400,2.500" fill="none" stroke="#3b2718" stroke-width="0.05" stroke-linejoin="round" stroke-linecap="round" stroke-dasharray="0.18,0.1" opacity="0.7"/>
<circle cx="-2.4" cy="2.5" r="0.07" fill="#3b2718" opacity="0.8"/>
<polyline points="2.400,-4.000 2.400,-2.500" fill="none" stroke="#3a7d34" stroke-width="0.05" stroke-linejoin="round" stroke-linecap="round" stroke-dasharray="0.18,0.1" opacity="0.7"/>
<circle cx="2.4" cy="-2.5" r="0.07" fill="#3a7d34" opacity="0.8"/>
<polyline points="5.700,4.000 5.700,0.400 2.600,0.400 2.600,-0.500" fill="none" stroke="#3b2718" stroke-width="0.05" stroke-linejoin="round" stroke-linecap="round" stroke-dasharray="0.18,0.1" opacity="0.7"/>
<circle cx="2.6" cy="-0.5" r="0.07" fill="#3b2718" opacity="0.8"/>
<polyline points="-5.700,-4.000 -5.700,-0.420 2.400,-0.420 2.400,0.500" fill="none" stroke="#3a7d34" stroke-width="0.05" stroke-linejoin="round" stroke-linecap="round" stroke-dasharray="0.18,0.1" opacity="0.7"/>
<circle cx="2.4" cy="0.5" r="0.07" fill="#3a7d34" opacity="0.8"/>
<polyline points="2.600,4.000 2.600,2.500" fill="none" stroke="#3b2718" stroke-width="0.05" stroke-linejoin="round" stroke-linecap="round" stroke-dasharray="0.18,0.1" opacity="0.7"/>
<circle cx="2.6" cy="2.5" r="0.07" fill="#3b2718" opacity="0.8"/>
<circle cx="-6" cy="0" r="0.18" fill="#b8470d" stroke="#3b2718" stroke-width="0.04"/>
<text x="-6.35" y="0" text-anchor="end" dominant-baseline="middle" font-size="0.26" fill="#3b2718" font-family="serif" font-weight="600">D_in</text>
<text x="-6.35" y="0.28" text-anchor="end" dominant-baseline="middle" font-size="0.18" fill="#7a6147" font-family="monospace">(-6, 0)</text>
<circle cx="-1.5" cy="-3.5" r="0.18" fill="#b8470d" stroke="#3b2718" stroke-width="0.04"/>
<text x="-1.5" y="-3.85" text-anchor="middle" dominant-baseline="middle" font-size="0.26" fill="#3b2718" font-family="serif" font-weight="600">EN_in</text>
<text x="-1.5" y="-3.5700000000000003" text-anchor="middle" dominant-baseline="middle" font-size="0.18" fill="#7a6147" font-family="monospace">(-1.5, 3.5)</text>
<circle cx="6" cy="-1.5" r="0.18" fill="#b8470d" stroke="#3b2718" stroke-width="0.04"/>
<text x="6.35" y="-1.5" text-anchor="start" dominant-baseline="middle" font-size="0.26" fill="#3b2718" font-family="serif" font-weight="600">Q_out</text>
<text x="6.35" y="-1.22" text-anchor="start" dominant-baseline="middle" font-size="0.18" fill="#7a6147" font-family="monospace">(6, 1.5)</text>
<circle cx="6" cy="1.5" r="0.18" fill="#b8470d" stroke="#3b2718" stroke-width="0.04"/>
<text x="6.35" y="1.5" text-anchor="start" dominant-baseline="middle" font-size="0.26" fill="#3b2718" font-family="serif" font-weight="600">QB_out</text>
<text x="6.35" y="1.78" text-anchor="start" dominant-baseline="middle" font-size="0.18" fill="#7a6147" font-family="monospace">(6, -1.5)</text>
<line x1="-6" y1="-4" x2="6" y2="-4" stroke="#3a7d34" stroke-width="0.10" stroke-linecap="round"/>
<text x="-6" y="-4.25" text-anchor="start" dominant-baseline="middle" font-size="0.30" fill="#3a7d34" font-family="serif" font-weight="700">Vdd</text>
<text x="6" y="-4.25" text-anchor="end" dominant-baseline="middle" font-size="0.20" fill="#7a6147" font-family="monospace">y=4</text>
<line x1="-6" y1="4" x2="6" y2="4" stroke="#3b2718" stroke-width="0.10" stroke-linecap="round"/>
<text x="-6" y="4.45" text-anchor="start" dominant-baseline="middle" font-size="0.30" fill="#3b2718" font-family="serif" font-weight="700">GND</text>
<text x="6" y="4.45" text-anchor="end" dominant-baseline="middle" font-size="0.20" fill="#7a6147" font-family="monospace">y=-4</text>
</svg>
